<?xml version="1.0" standalone="no"?>
<!DOCTYPE svg PUBLIC "-//W3C//DTD SVG 20010904//EN"
 "http://www.w3.org/TR/2001/REC-SVG-20010904/DTD/svg10.dtd">
<svg version="1.0" xmlns="http://www.w3.org/2000/svg"
 width="605.000000pt" height="520.000000pt" viewBox="0 0 605.000000 520.000000"
 preserveAspectRatio="xMidYMid meet">

<g transform="translate(0.000000,520.000000) scale(0.100000,-0.100000)"
fill="#000000" stroke="none">
<path d="M2971 4183 c-19 -10 -44 -31 -55 -46 -20 -27 -21 -42 -21 -250 0
-193 2 -226 18 -254 22 -41 64 -63 117 -63 32 0 48 7 78 34 l37 34 3 219 c2
138 -1 232 -8 255 -20 69 -105 105 -169 71z"/>
<path d="M2546 3949 c-48 -16 -127 -48 -175 -71 l-86 -42 -185 -6 c-166 -5
-190 -8 -232 -29 -57 -28 -102 -77 -134 -145 -22 -48 -24 -62 -24 -242 l0
-190 -29 -55 c-34 -63 -66 -140 -75 -186 -6 -25 -3 -36 13 -52 18 -18 33 -21
99 -21 42 0 82 4 88 8 6 4 21 36 33 72 48 148 172 334 313 472 132 129 366
260 538 301 l90 22 0 77 c0 65 -3 81 -20 98 -29 29 -106 25 -214 -11z m-516
-326 c0 -3 -31 -39 -70 -79 l-70 -72 0 57 c0 57 11 84 40 94 22 8 100 8 100 0z"/>
<path d="M3315 3968 c-32 -18 -35 -28 -35 -115 0 -78 1 -83 21 -83 36 0 199
-59 292 -105 257 -129 445 -318 567 -570 27 -57 52 -114 55 -127 6 -22 15 -27
75 -37 106 -17 129 -15 142 14 14 32 0 83 -51 180 l-36 70 -6 200 c-5 164 -9
209 -25 249 -25 64 -80 125 -140 156 -46 23 -62 25 -239 30 -181 5 -192 6
-240 31 -77 41 -172 78 -257 99 -88 23 -96 23 -123 8z m812 -353 c25 -18 36
-66 25 -111 l-7 -31 -73 79 -74 78 54 0 c32 0 62 -6 75 -15z"/>
<path d="M2634 3591 c-81 -29 -213 -101 -251 -137 -29 -28 -33 -36 -24 -53 18
-32 47 -35 83 -8 38 28 170 96 240 122 54 20 65 38 43 71 -18 28 -25 29 -91 5z"/>
<path d="M3301 3579 c-13 -36 2 -53 62 -72 29 -9 98 -40 152 -68 l99 -50 18
23 c10 13 18 26 18 30 1 30 -222 147 -296 156 -39 4 -45 2 -53 -19z"/>
<path d="M2880 3408 c-216 -46 -364 -128 -502 -277 -72 -79 -116 -147 -163
-258 -46 -106 -65 -210 -65 -345 1 -241 74 -428 234 -597 79 -83 142 -129 252
-184 125 -63 222 -82 404 -81 159 2 244 18 355 70 204 95 376 279 445 478 91
257 57 580 -82 797 -116 180 -275 302 -478 367 -128 41 -291 54 -400 30z m339
-268 c208 -73 367 -247 416 -452 21 -91 19 -229 -5 -324 -49 -191 -200 -353
-393 -422 -63 -23 -88 -26 -207 -26 -149 -1 -192 9 -310 70 -214 111 -341 339
-328 588 15 273 203 504 470 576 99 27 264 22 357 -10z"/>
<path d="M2940 2841 c-87 -27 -165 -96 -203 -180 -31 -68 -30 -180 2 -245 66
-134 214 -207 351 -172 190 49 287 225 226 406 -27 77 -113 162 -186 184 -56
17 -147 20 -190 7z m148 -155 c104 -54 128 -167 53 -246 -63 -66 -146 -73
-216 -19 -85 67 -71 213 25 261 42 22 101 23 138 4z"/>
<path d="M3708 3356 c-10 -23 -5 -31 52 -93 67 -73 154 -199 191 -275 19 -40
28 -48 50 -48 62 0 57 42 -19 170 -85 141 -201 270 -244 270 -10 0 -23 -11
-30 -24z"/>
<path d="M2183 3276 c-70 -76 -157 -211 -176 -271 -12 -40 2 -65 38 -65 18 0
33 19 76 96 30 53 84 132 122 176 37 44 67 84 67 89 0 12 -37 49 -49 49 -5 0
-40 -34 -78 -74z"/>
<path d="M1414 2684 c-35 -17 -74 -79 -74 -118 0 -40 25 -92 54 -111 14 -9 52
-19 84 -22 l58 -5 11 -92 c15 -124 54 -251 113 -374 l50 -104 0 -157 c0 -183
10 -226 71 -295 22 -25 65 -57 96 -72 53 -26 64 -28 202 -28 132 -1 149 -3
176 -22 93 -66 318 -159 410 -170 51 -6 56 -5 84 24 29 28 31 35 31 104 l0 73
-65 13 c-264 50 -559 246 -731 488 -97 136 -189 347 -218 503 -23 119 -28 111
62 111 130 1 195 45 195 134 0 52 -28 97 -77 120 -49 23 -485 23 -532 0z m546
-1118 l65 -69 -54 5 c-66 6 -81 23 -81 92 0 27 1 47 3 45 2 -2 32 -35 67 -73z"/>
<path d="M4114 2651 c-50 -31 -66 -97 -38 -156 29 -63 50 -67 321 -63 240 3
242 3 267 27 59 56 55 153 -8 192 -28 17 -52 19 -271 19 -218 0 -243 -2 -271
-19z"/>
<path d="M3997 2183 c-4 -3 -7 -16 -7 -29 0 -21 17 -34 46 -34 19 0 35 41 22
58 -11 13 -50 17 -61 5z"/>
<path d="M4223 2140 c-82 -275 -275 -520 -529 -673 -126 -76 -291 -137 -370
-137 l-44 0 0 -85 c0 -92 12 -118 63 -130 51 -13 249 55 388 133 l86 49 149 7
c125 5 156 10 199 30 64 29 114 78 145 142 22 45 25 63 28 234 l3 185 39 75
c51 101 67 155 51 174 -18 22 -201 18 -208 -4z m-77 -596 c-6 -24 -16 -29 -81
-40 l-40 -6 41 43 c23 24 50 54 60 67 l19 23 3 -32 c2 -17 1 -42 -2 -55z"/>
<path d="M3904 2003 c-127 -200 -305 -342 -532 -424 -35 -12 -66 -29 -69 -36
-10 -26 15 -63 41 -63 28 0 151 42 211 73 173 87 358 265 434 414 26 52 26 69
2 83 -36 18 -50 11 -87 -47z"/>
<path d="M2346 1719 c-17 -25 -12 -46 15 -54 42 -14 68 44 30 65 -26 14 -28
13 -45 -11z"/>
<path d="M2431 1648 c-12 -20 -11 -24 10 -41 35 -29 204 -108 236 -110 20 -1
30 5 40 23 11 22 10 27 -10 42 -12 10 -46 27 -75 38 -29 11 -75 31 -102 45
-61 31 -81 31 -99 3z"/>
<path d="M2985 1426 c-17 -7 -43 -28 -58 -45 -27 -32 -27 -35 -27 -172 0 -152
8 -182 54 -213 14 -9 45 -16 72 -16 41 0 51 5 85 39 l39 39 0 138 c0 156 -10
186 -72 224 -38 23 -52 24 -93 6z"/>
<path d="M5695 805 c-34 -33 -34 -84 1 -119 61 -60 145 -8 135 84 -3 25 -50
60 -82 60 -18 0 -39 -9 -54 -25z m97 -22 c10 -9 18 -24 18 -34 0 -23 -38 -59
-61 -59 -37 0 -64 71 -37 98 17 17 58 15 80 -5z"/>
<path d="M5736 764 c-10 -27 -7 -54 8 -54 15 0 26 21 26 51 0 23 -25 25 -34 3z"/>
<path d="M1820 465 l0 -335 75 0 74 0 3 93 3 92 73 -92 74 -93 89 0 90 0 -101
133 c-55 72 -100 139 -100 148 0 8 14 28 31 45 36 34 139 158 139 168 0 3 -35
6 -77 5 l-78 0 -70 -81 -70 -81 -3 167 -2 166 -75 0 -75 0 0 -335z"/>
<path d="M4320 465 l0 -336 76 3 76 3 2 82 c1 88 10 109 31 78 8 -11 38 -53
67 -92 l53 -73 83 0 c45 0 82 3 82 6 0 3 -43 66 -95 141 l-95 135 29 37 c16
20 54 65 85 101 31 36 56 68 56 73 0 4 -33 7 -74 7 l-74 0 -52 -57 c-29 -31
-59 -67 -67 -80 -9 -13 -18 -23 -22 -23 -3 0 -6 73 -6 163 l0 162 -77 3 -78 3
0 -336z"/>
<path d="M340 761 c0 -15 3 -49 6 -75 l7 -46 88 0 89 0 0 -232 c0 -128 3 -243
6 -255 6 -21 12 -23 85 -23 l79 0 0 255 0 255 90 0 90 0 0 75 0 75 -270 0
-270 0 0 -29z"/>
<path d="M2469 786 c-2 -2 -3 -36 -1 -75 l4 -71 89 0 89 0 0 -255 0 -255 85 0
85 0 0 255 0 255 90 0 90 0 0 75 0 75 -263 0 c-145 0 -266 -2 -268 -4z"/>
<path d="M960 626 c-25 -7 -60 -20 -78 -30 l-33 -17 20 -27 c57 -77 54 -74 86
-58 67 35 175 7 175 -45 0 -17 -4 -19 -22 -12 -47 17 -133 8 -189 -20 -71 -36
-92 -65 -92 -132 0 -98 54 -156 152 -163 52 -4 67 -1 105 22 54 31 56 32 56 6
0 -18 7 -20 71 -20 l70 0 -3 183 c-4 213 -13 242 -91 291 -55 34 -154 44 -227
22z m150 -306 c26 -26 25 -35 -2 -54 -41 -29 -118 -17 -132 20 -19 48 92 76
134 34z"/>
<path d="M1470 628 c-80 -23 -120 -77 -120 -163 0 -68 33 -99 150 -140 100
-34 125 -58 75 -71 -36 -9 -89 1 -136 25 l-39 21 -39 -43 c-37 -40 -39 -43
-23 -61 9 -10 40 -30 67 -44 43 -23 63 -27 135 -27 68 0 93 5 126 22 56 30 84
77 84 141 0 78 -35 112 -155 152 -52 17 -98 36 -101 42 -13 21 29 40 71 33 31
-5 95 -28 131 -47 3 -2 14 22 24 52 l19 55 -21 15 c-64 45 -167 61 -248 38z"/>
<path d="M3200 619 c-19 -12 -47 -32 -62 -46 l-26 -25 5 42 6 43 -48 -6 c-26
-4 -60 -7 -74 -7 l-26 0 -3 -245 -3 -245 80 0 81 0 0 139 c0 136 0 139 27 165
24 25 38 31 88 38 16 3 22 16 32 68 18 96 17 100 -14 100 -16 0 -44 -10 -63
-21z"/>
<path d="M3419 617 c-93 -34 -93 -34 -65 -65 14 -15 33 -37 43 -50 17 -22 20
-23 48 -8 47 25 117 21 149 -9 33 -31 36 -60 4 -48 -13 4 -50 8 -83 7 -131 -1
-224 -97 -196 -201 14 -53 36 -80 81 -103 54 -27 116 -26 176 5 27 14 50 25
52 25 1 0 2 -9 2 -20 0 -18 7 -20 71 -20 l71 0 -4 183 c-3 176 -4 183 -30 227
-54 94 -186 125 -319 77z m172 -287 c30 -16 24 -55 -10 -70 -47 -19 -93 -9
-111 23 -14 26 -14 29 4 43 23 16 89 19 117 4z"/>
<path d="M4010 631 c-77 -24 -148 -90 -168 -160 -46 -153 35 -306 181 -342 52
-12 126 -5 168 17 39 20 89 64 88 77 0 7 -19 27 -40 46 l-40 34 -35 -16 c-56
-27 -110 -22 -145 12 -24 25 -29 37 -29 81 0 62 11 85 50 105 39 20 63 19 111
-6 l40 -20 45 48 45 48 -32 27 c-59 49 -166 71 -239 49z"/>
<path d="M4946 626 c-92 -34 -154 -118 -163 -223 -7 -74 9 -131 50 -185 52
-68 106 -93 202 -93 67 0 88 5 131 27 83 44 85 51 36 114 l-25 32 -31 -18
c-41 -24 -89 -33 -125 -25 -29 6 -81 49 -81 66 0 5 64 9 143 9 196 0 191 -2
184 76 -10 134 -98 225 -221 231 -36 2 -77 -3 -100 -11z m143 -142 c53 -44 43
-54 -59 -54 -101 0 -112 9 -63 55 37 33 82 33 122 -1z"/>
<path d="M5505 595 l-55 -45 0 40 c0 44 -1 45 -84 34 l-46 -7 0 -243 0 -244
75 0 75 0 0 125 c0 95 4 134 16 156 15 30 65 59 102 59 16 0 23 14 36 68 9 37
19 75 22 85 5 14 -1 17 -40 17 -39 0 -53 -6 -101 -45z"/>
</g>
</svg>
